<mxfile host="app.diagrams.net" modified="2023-11-08T02:09:52.249Z" agent="Mozilla/5.0 (Windows NT 10.0; Win64; x64) AppleWebKit/537.36 (KHTML, like Gecko) Chrome/119.0.0.0 Safari/537.36" etag="rOQZsJeUGt_cBsoDXUv4" version="22.0.8" type="device">
  <diagram id="C5RBs43oDa-KdzZeNtuy" name="Page-1">
    <mxGraphModel dx="1434" dy="833" grid="1" gridSize="10" guides="1" tooltips="1" connect="1" arrows="1" fold="1" page="1" pageScale="1" pageWidth="827" pageHeight="1169" math="0" shadow="0">
      <root>
        <mxCell id="WIyWlLk6GJQsqaUBKTNV-0" />
        <mxCell id="WIyWlLk6GJQsqaUBKTNV-1" parent="WIyWlLk6GJQsqaUBKTNV-0" />
        <mxCell id="tmpIt00u84MR4YOi7XGV-0" value="user" style="swimlane;fontStyle=1;align=center;verticalAlign=top;childLayout=stackLayout;horizontal=1;startSize=26;horizontalStack=0;resizeParent=1;resizeParentMax=0;resizeLast=0;collapsible=1;marginBottom=0;whiteSpace=wrap;html=1;" vertex="1" parent="WIyWlLk6GJQsqaUBKTNV-1">
          <mxGeometry x="349" y="70" width="160" height="144" as="geometry" />
        </mxCell>
        <mxCell id="tmpIt00u84MR4YOi7XGV-1" value="+ nama : string&lt;br&gt;+ id : int&lt;br&gt;+ email : float&lt;br&gt;+ alamat : string&lt;br&gt;+ no_tlp : int" style="text;strokeColor=none;fillColor=none;align=left;verticalAlign=top;spacingLeft=4;spacingRight=4;overflow=hidden;rotatable=0;points=[[0,0.5],[1,0.5]];portConstraint=eastwest;whiteSpace=wrap;html=1;" vertex="1" parent="tmpIt00u84MR4YOi7XGV-0">
          <mxGeometry y="26" width="160" height="84" as="geometry" />
        </mxCell>
        <mxCell id="tmpIt00u84MR4YOi7XGV-2" value="" style="line;strokeWidth=1;fillColor=none;align=left;verticalAlign=middle;spacingTop=-1;spacingLeft=3;spacingRight=3;rotatable=0;labelPosition=right;points=[];portConstraint=eastwest;strokeColor=inherit;" vertex="1" parent="tmpIt00u84MR4YOi7XGV-0">
          <mxGeometry y="110" width="160" height="8" as="geometry" />
        </mxCell>
        <mxCell id="tmpIt00u84MR4YOi7XGV-3" value="+ Update_profile()" style="text;strokeColor=none;fillColor=none;align=left;verticalAlign=top;spacingLeft=4;spacingRight=4;overflow=hidden;rotatable=0;points=[[0,0.5],[1,0.5]];portConstraint=eastwest;whiteSpace=wrap;html=1;fontStyle=0" vertex="1" parent="tmpIt00u84MR4YOi7XGV-0">
          <mxGeometry y="118" width="160" height="26" as="geometry" />
        </mxCell>
        <mxCell id="tmpIt00u84MR4YOi7XGV-20" style="edgeStyle=orthogonalEdgeStyle;rounded=0;orthogonalLoop=1;jettySize=auto;html=1;exitX=0.5;exitY=0;exitDx=0;exitDy=0;entryX=0;entryY=0.5;entryDx=0;entryDy=0;" edge="1" parent="WIyWlLk6GJQsqaUBKTNV-1" source="tmpIt00u84MR4YOi7XGV-4" target="tmpIt00u84MR4YOi7XGV-1">
          <mxGeometry relative="1" as="geometry" />
        </mxCell>
        <mxCell id="tmpIt00u84MR4YOi7XGV-4" value="staf pengajar" style="swimlane;fontStyle=1;align=center;verticalAlign=top;childLayout=stackLayout;horizontal=1;startSize=26;horizontalStack=0;resizeParent=1;resizeParentMax=0;resizeLast=0;collapsible=1;marginBottom=0;whiteSpace=wrap;html=1;" vertex="1" parent="WIyWlLk6GJQsqaUBKTNV-1">
          <mxGeometry x="99" y="185" width="160" height="200" as="geometry" />
        </mxCell>
        <mxCell id="tmpIt00u84MR4YOi7XGV-5" value="+ nama : string&lt;br&gt;+ id_pengajar : int&lt;br&gt;+ email : float&lt;br&gt;+ alamat : string&lt;br&gt;+ no_tlp : int&lt;br&gt;+ Jabatan : enum&lt;br&gt;+ sallary : int&amp;nbsp;" style="text;strokeColor=none;fillColor=none;align=left;verticalAlign=top;spacingLeft=4;spacingRight=4;overflow=hidden;rotatable=0;points=[[0,0.5],[1,0.5]];portConstraint=eastwest;whiteSpace=wrap;html=1;" vertex="1" parent="tmpIt00u84MR4YOi7XGV-4">
          <mxGeometry y="26" width="160" height="114" as="geometry" />
        </mxCell>
        <mxCell id="tmpIt00u84MR4YOi7XGV-6" value="" style="line;strokeWidth=1;fillColor=none;align=left;verticalAlign=middle;spacingTop=-1;spacingLeft=3;spacingRight=3;rotatable=0;labelPosition=right;points=[];portConstraint=eastwest;strokeColor=inherit;" vertex="1" parent="tmpIt00u84MR4YOi7XGV-4">
          <mxGeometry y="140" width="160" height="8" as="geometry" />
        </mxCell>
        <mxCell id="tmpIt00u84MR4YOi7XGV-7" value="+ Update_profile()&lt;br&gt;+ Insert_Data()&lt;br&gt;+ Update_Modul()" style="text;strokeColor=none;fillColor=none;align=left;verticalAlign=top;spacingLeft=4;spacingRight=4;overflow=hidden;rotatable=0;points=[[0,0.5],[1,0.5]];portConstraint=eastwest;whiteSpace=wrap;html=1;fontStyle=0" vertex="1" parent="tmpIt00u84MR4YOi7XGV-4">
          <mxGeometry y="148" width="160" height="52" as="geometry" />
        </mxCell>
        <mxCell id="tmpIt00u84MR4YOi7XGV-23" style="edgeStyle=orthogonalEdgeStyle;rounded=0;orthogonalLoop=1;jettySize=auto;html=1;exitX=0.5;exitY=0;exitDx=0;exitDy=0;entryX=1;entryY=0.5;entryDx=0;entryDy=0;" edge="1" parent="WIyWlLk6GJQsqaUBKTNV-1" source="tmpIt00u84MR4YOi7XGV-8" target="tmpIt00u84MR4YOi7XGV-1">
          <mxGeometry relative="1" as="geometry" />
        </mxCell>
        <mxCell id="tmpIt00u84MR4YOi7XGV-8" value="kepala staf" style="swimlane;fontStyle=1;align=center;verticalAlign=top;childLayout=stackLayout;horizontal=1;startSize=26;horizontalStack=0;resizeParent=1;resizeParentMax=0;resizeLast=0;collapsible=1;marginBottom=0;whiteSpace=wrap;html=1;" vertex="1" parent="WIyWlLk6GJQsqaUBKTNV-1">
          <mxGeometry x="569" y="185" width="160" height="210" as="geometry" />
        </mxCell>
        <mxCell id="tmpIt00u84MR4YOi7XGV-9" value="+ nama : string&lt;br&gt;+ id : int&lt;br&gt;+ email : float&lt;br&gt;+ alamat : string&lt;br&gt;+ no_tlp : int&lt;br&gt;+ Jabatan_kepala : enum&lt;br&gt;+ sallary : int" style="text;strokeColor=none;fillColor=none;align=left;verticalAlign=top;spacingLeft=4;spacingRight=4;overflow=hidden;rotatable=0;points=[[0,0.5],[1,0.5]];portConstraint=eastwest;whiteSpace=wrap;html=1;" vertex="1" parent="tmpIt00u84MR4YOi7XGV-8">
          <mxGeometry y="26" width="160" height="114" as="geometry" />
        </mxCell>
        <mxCell id="tmpIt00u84MR4YOi7XGV-10" value="" style="line;strokeWidth=1;fillColor=none;align=left;verticalAlign=middle;spacingTop=-1;spacingLeft=3;spacingRight=3;rotatable=0;labelPosition=right;points=[];portConstraint=eastwest;strokeColor=inherit;" vertex="1" parent="tmpIt00u84MR4YOi7XGV-8">
          <mxGeometry y="140" width="160" height="8" as="geometry" />
        </mxCell>
        <mxCell id="tmpIt00u84MR4YOi7XGV-11" value="+ Update_profile()&lt;br&gt;+ Insert_Data()&lt;br&gt;+ Update_Modul()" style="text;strokeColor=none;fillColor=none;align=left;verticalAlign=top;spacingLeft=4;spacingRight=4;overflow=hidden;rotatable=0;points=[[0,0.5],[1,0.5]];portConstraint=eastwest;whiteSpace=wrap;html=1;fontStyle=0" vertex="1" parent="tmpIt00u84MR4YOi7XGV-8">
          <mxGeometry y="148" width="160" height="62" as="geometry" />
        </mxCell>
        <mxCell id="tmpIt00u84MR4YOi7XGV-12" value="Materi" style="swimlane;fontStyle=1;align=center;verticalAlign=top;childLayout=stackLayout;horizontal=1;startSize=26;horizontalStack=0;resizeParent=1;resizeParentMax=0;resizeLast=0;collapsible=1;marginBottom=0;whiteSpace=wrap;html=1;" vertex="1" parent="WIyWlLk6GJQsqaUBKTNV-1">
          <mxGeometry x="349" y="600" width="160" height="170" as="geometry" />
        </mxCell>
        <mxCell id="tmpIt00u84MR4YOi7XGV-13" value="+ id_materi : int&lt;br&gt;+ prodi : enum&lt;br&gt;+ id_pengajar : int&lt;br&gt;+ id_siswa : int&lt;br&gt;+ semester : enum" style="text;strokeColor=none;fillColor=none;align=left;verticalAlign=top;spacingLeft=4;spacingRight=4;overflow=hidden;rotatable=0;points=[[0,0.5],[1,0.5]];portConstraint=eastwest;whiteSpace=wrap;html=1;" vertex="1" parent="tmpIt00u84MR4YOi7XGV-12">
          <mxGeometry y="26" width="160" height="84" as="geometry" />
        </mxCell>
        <mxCell id="tmpIt00u84MR4YOi7XGV-14" value="" style="line;strokeWidth=1;fillColor=none;align=left;verticalAlign=middle;spacingTop=-1;spacingLeft=3;spacingRight=3;rotatable=0;labelPosition=right;points=[];portConstraint=eastwest;strokeColor=inherit;" vertex="1" parent="tmpIt00u84MR4YOi7XGV-12">
          <mxGeometry y="110" width="160" height="8" as="geometry" />
        </mxCell>
        <mxCell id="tmpIt00u84MR4YOi7XGV-15" value="+ Reade_Only()&lt;br&gt;+ Print_Out()&lt;br&gt;+ Up_to_date()" style="text;strokeColor=none;fillColor=none;align=left;verticalAlign=top;spacingLeft=4;spacingRight=4;overflow=hidden;rotatable=0;points=[[0,0.5],[1,0.5]];portConstraint=eastwest;whiteSpace=wrap;html=1;fontStyle=0" vertex="1" parent="tmpIt00u84MR4YOi7XGV-12">
          <mxGeometry y="118" width="160" height="52" as="geometry" />
        </mxCell>
        <mxCell id="tmpIt00u84MR4YOi7XGV-16" value="siswa" style="swimlane;fontStyle=1;align=center;verticalAlign=top;childLayout=stackLayout;horizontal=1;startSize=26;horizontalStack=0;resizeParent=1;resizeParentMax=0;resizeLast=0;collapsible=1;marginBottom=0;whiteSpace=wrap;html=1;" vertex="1" parent="WIyWlLk6GJQsqaUBKTNV-1">
          <mxGeometry x="342" y="280" width="160" height="190" as="geometry" />
        </mxCell>
        <mxCell id="tmpIt00u84MR4YOi7XGV-17" value="+ nama : string&lt;br&gt;+ id_siswa : int&lt;br&gt;+ email : float&lt;br&gt;+ alamat : string&lt;br&gt;+ no_tlp : int&lt;br&gt;+ kelas : enum&lt;br&gt;+ prodi : enum" style="text;strokeColor=none;fillColor=none;align=left;verticalAlign=top;spacingLeft=4;spacingRight=4;overflow=hidden;rotatable=0;points=[[0,0.5],[1,0.5]];portConstraint=eastwest;whiteSpace=wrap;html=1;" vertex="1" parent="tmpIt00u84MR4YOi7XGV-16">
          <mxGeometry y="26" width="160" height="114" as="geometry" />
        </mxCell>
        <mxCell id="tmpIt00u84MR4YOi7XGV-18" value="" style="line;strokeWidth=1;fillColor=none;align=left;verticalAlign=middle;spacingTop=-1;spacingLeft=3;spacingRight=3;rotatable=0;labelPosition=right;points=[];portConstraint=eastwest;strokeColor=inherit;" vertex="1" parent="tmpIt00u84MR4YOi7XGV-16">
          <mxGeometry y="140" width="160" height="8" as="geometry" />
        </mxCell>
        <mxCell id="tmpIt00u84MR4YOi7XGV-19" value="+ Update_profile()&lt;br&gt;+ Acces_Modul()" style="text;strokeColor=none;fillColor=none;align=left;verticalAlign=top;spacingLeft=4;spacingRight=4;overflow=hidden;rotatable=0;points=[[0,0.5],[1,0.5]];portConstraint=eastwest;whiteSpace=wrap;html=1;fontStyle=0" vertex="1" parent="tmpIt00u84MR4YOi7XGV-16">
          <mxGeometry y="148" width="160" height="42" as="geometry" />
        </mxCell>
        <mxCell id="tmpIt00u84MR4YOi7XGV-22" style="edgeStyle=orthogonalEdgeStyle;rounded=0;orthogonalLoop=1;jettySize=auto;html=1;exitX=0.5;exitY=0;exitDx=0;exitDy=0;entryX=0.456;entryY=1;entryDx=0;entryDy=0;entryPerimeter=0;" edge="1" parent="WIyWlLk6GJQsqaUBKTNV-1" source="tmpIt00u84MR4YOi7XGV-16" target="tmpIt00u84MR4YOi7XGV-3">
          <mxGeometry relative="1" as="geometry" />
        </mxCell>
        <mxCell id="tmpIt00u84MR4YOi7XGV-26" style="edgeStyle=orthogonalEdgeStyle;rounded=0;orthogonalLoop=1;jettySize=auto;html=1;exitX=1;exitY=0.5;exitDx=0;exitDy=0;" edge="1" parent="WIyWlLk6GJQsqaUBKTNV-1" source="tmpIt00u84MR4YOi7XGV-5" target="tmpIt00u84MR4YOi7XGV-13">
          <mxGeometry relative="1" as="geometry" />
        </mxCell>
        <mxCell id="tmpIt00u84MR4YOi7XGV-27" value="mengajar" style="text;html=1;align=center;verticalAlign=middle;resizable=0;points=[];autosize=1;strokeColor=none;fillColor=none;" vertex="1" parent="WIyWlLk6GJQsqaUBKTNV-1">
          <mxGeometry x="229" y="488" width="70" height="30" as="geometry" />
        </mxCell>
        <mxCell id="tmpIt00u84MR4YOi7XGV-28" style="edgeStyle=orthogonalEdgeStyle;rounded=0;orthogonalLoop=1;jettySize=auto;html=1;exitX=0;exitY=0.5;exitDx=0;exitDy=0;entryX=0.5;entryY=0;entryDx=0;entryDy=0;" edge="1" parent="WIyWlLk6GJQsqaUBKTNV-1" source="tmpIt00u84MR4YOi7XGV-19" target="tmpIt00u84MR4YOi7XGV-12">
          <mxGeometry relative="1" as="geometry" />
        </mxCell>
        <mxCell id="tmpIt00u84MR4YOi7XGV-29" value="mengakses" style="text;html=1;align=center;verticalAlign=middle;resizable=0;points=[];autosize=1;strokeColor=none;fillColor=none;" vertex="1" parent="WIyWlLk6GJQsqaUBKTNV-1">
          <mxGeometry x="329" y="488" width="80" height="30" as="geometry" />
        </mxCell>
      </root>
    </mxGraphModel>
  </diagram>
</mxfile>
